<svg xmlns="http://www.w3.org/2000/svg" width="71.299" height="80" viewBox="0 0 71.299 80">
    <defs>
        <style>
            .cls-1{fill:#3e4e5c}.cls-2{fill:#323e4a}.cls-3{fill:#5992bd}.cls-4{fill:#63a3d2}.cls-5{fill:#487190}.cls-6{fill:#426885}.cls-7{fill:#ebedee}.cls-8{fill:#d9dadb}
        </style>
    </defs>
    <g id="megaphone" transform="translate(-27.406)">
        <path id="Path_388" d="M161.2 330.766l12.254-3.876c1.376 3.751-1.938 4.939-1.313 9.566.25 1.751 1.563 1.25 2.313 3.188l.188 4.751 3.939 3.126c.563 1.5-1.313 3.251-1.313 3.251s-4.126 4.689-7.065 4.189c-4.125-.625-9.003-24.195-9.003-24.195z" class="cls-1" data-name="Path 388" transform="translate(-112.556 -274.999)"/>
        <path id="Path_389" d="M172.142 339.437c-.563-4.439 2.313-5.689 1.438-9l-7.627 1.813-4.751 1.5s.125.688.438 1.876l10.754 4.5a1.76 1.76 0 0 1-.252-.689z" class="cls-2" data-name="Path 389" transform="translate(-112.556 -277.98)"/>
        <path id="Path_390" d="M32.14 207.173l6.627-2.376c.063 2.813 1.188 7.627 3.126 12.942 1.938 5.252 4.251 9.628 6.127 11.816l-6.627 2.376c-4.5 1.626-10.191-2.626-12.754-9.441-2.564-6.877-1.001-13.69 3.501-15.317z" class="cls-1" data-name="Path 390" transform="translate(0 -172.287)"/>
        <path id="Path_391" d="M106.431 43.692c-5.314-14.317-7.065-27.2-4.376-30.7a10.358 10.358 0 0 0-1.313 1.626C96.3 21.185 88.863 35.315 63.355 44.443v.063c-1.563.563-.688 6.815 1.938 13.879 2.626 7.127 6 12.441 7.565 11.879 25.508-9.128 40.513-2.813 48.265-.625a4.919 4.919 0 0 0 3.814-.188c-4.064 1.562-12.566-9.879-18.506-25.759z" class="cls-3" data-name="Path 391" transform="translate(-29.59 -10.932)"/>
        <path id="Path_392" d="M100.836 19.721c.625-3.814.813-4.564 1.063-5.752l.063-.188a12.539 12.539 0 0 0-1.188 1.5c-4.5 6.565-11.941 20.694-37.45 29.822v.063c-.625.25-.875 1.376-.75 3.063l2.063-.625c23.507-8.315 31.572-20.944 36.199-27.883z" class="cls-4" data-name="Path 392" transform="translate(-29.559 -11.593)"/>
        <path id="Path_393" d="M306.4.187c-4.939 1.813-4.251 16.38 1.563 32.51 5.752 16.13 14.442 27.759 19.381 25.883 4.939-1.813 4.251-16.38-1.563-32.51S311.273-1.626 306.4.187z" class="cls-5" data-name="Path 393" transform="translate(-231.931)"/>
        <path id="Path_394" d="M314.149 38.962c-5.752-16.13-6.44-30.7-1.563-32.51a4.218 4.218 0 0 1 3.564.563C312.523 1.951 308.96-.738 306.4.2c-4.939 1.813-4.251 16.38 1.563 32.51 4.564 12.754 10.941 22.632 15.818 25.321a79.322 79.322 0 0 1-9.632-19.069z" class="cls-6" data-name="Path 394" transform="translate(-231.931 -.013)"/>
        <path id="Path_395" d="M321.334 161.946a6.528 6.528 0 0 0-.625.25c.563 2.063 1.25 4.126 2 6.314a97.052 97.052 0 0 0 3.689 8.878 4.3 4.3 0 0 0 .5-.188 8.214 8.214 0 0 0 4.877-10.441 8.131 8.131 0 0 0-10.441-4.813z" class="cls-7" data-name="Path 395" transform="translate(-246.743 -135.813)"/>
        <path id="Path_396" d="M328.962 174.683a88.974 88.974 0 0 1-3.689-13.254 7.857 7.857 0 0 0-3.939.438 6.528 6.528 0 0 0-.625.25c.563 2.063 1.25 4.126 2 6.314a97.052 97.052 0 0 0 3.689 8.878 4.3 4.3 0 0 0 .5-.188 6.812 6.812 0 0 0 2.438-1.438c-.124-.312-.249-.625-.374-1z" class="cls-8" data-name="Path 396" transform="translate(-246.743 -135.734)"/>
    </g>
</svg>
